<?xml version="1.0" encoding="utf-8"?>
<svg version="1.1" xmlns:xlink="http://www.w3.org/1999/xlink" width="14px" height="15px" xmlns="http://www.w3.org/2000/svg">
  <g transform="matrix(1 0 0 1 -435 -115 )">
    <path d="M 13.805859375 13.534765625  C 14.062890625 13.277734375  14.062890625 12.862109375  13.80859375 12.605078125  L 11.082421875 9.87890625  C 10.959375 9.755859375  10.792578125 9.6875  10.617578125 9.6875  L 10.171875 9.6875  C 10.9265625 8.722265625  11.375 7.508203125  11.375 6.1875  C 11.375 3.045703125  8.829296875 0.5  5.6875 0.5  C 2.545703125 0.5  0 3.045703125  0 6.1875  C 0 9.329296875  2.545703125 11.875  5.6875 11.875  C 7.008203125 11.875  8.222265625 11.4265625  9.1875 10.671875  L 9.1875 11.117578125  C 9.1875 11.292578125  9.255859375 11.459375  9.37890625 11.582421875  L 12.105078125 14.30859375  C 12.362109375 14.565625  12.777734375 14.565625  13.03203125 14.30859375  L 13.805859375 13.534765625  Z M 9.1875 6.1875  C 9.1875 8.120703125  7.6234375 9.6875  5.6875 9.6875  C 3.754296875 9.6875  2.1875 8.1234375  2.1875 6.1875  C 2.1875 4.254296875  3.7515625 2.6875  5.6875 2.6875  C 7.620703125 2.6875  9.1875 4.2515625  9.1875 6.1875  Z " fill-rule="nonzero" fill="#d27100" stroke="none" transform="matrix(1 0 0 1 435 115 )" />
  </g>
</svg>