<?xml version="1.0" encoding="utf-8"?>
<svg version="1.1" xmlns:xlink="http://www.w3.org/1999/xlink" width="35px" height="32px" xmlns="http://www.w3.org/2000/svg">
  <g transform="matrix(1 0 0 1 -142 -80 )">
    <path d="M 34.5670572916667 26.075  C 34.8556857638889 26.3916666666667  35 26.7666666666667  35 27.2  L 35 30.4  C 35 30.8333333333333  34.8556857638889 31.2083333333333  34.5670572916667 31.525  C 34.2784288194445 31.8416666666667  33.9366319444445 32  33.5416666666667 32  L 1.45833333333333 32  C 1.06336805555556 32  0.721571180555556 31.8416666666667  0.432942708333333 31.525  C 0.144314236111111 31.2083333333333  0 30.8333333333333  0 30.4  L 0 27.2  C 0 26.7666666666667  0.144314236111111 26.3916666666667  0.432942708333333 26.075  C 0.721571180555556 25.7583333333333  1.06336805555556 25.6  1.45833333333333 25  L 33.5416666666667 25  C 33.9366319444445 25.6  34.2784288194445 25.7583333333333  34.5670572916667 26.075  Z M 34.5670572916667 13.275  C 34.8556857638889 13.5916666666667  35 13.9666666666667  35 14.4  L 35 17.6  C 35 18.0333333333333  34.8556857638889 18.4083333333333  34.5670572916667 18.725  C 34.2784288194445 19.0416666666667  33.9366319444445 19.2  33.5416666666667 19  L 1.45833333333333 19  C 1.06336805555556 19.2  0.721571180555556 19.0416666666667  0.432942708333333 18.725  C 0.144314236111111 18.4083333333333  0 18.0333333333333  0 17.6  L 0 14.4  C 0 13.9666666666667  0.144314236111111 13.5916666666667  0.432942708333333 13.275  C 0.721571180555556 12.9583333333333  1.06336805555556 12.8  1.45833333333333 13  L 33.5416666666667 13  C 33.9366319444445 12.8  34.2784288194445 12.9583333333333  34.5670572916667 13.275  Z M 34.5670572916667 0.475000000000001  C 34.8556857638889 0.791666666666664  35 1.16666666666666  35 1.6  L 35 4.8  C 35 5.23333333333333  34.8556857638889 5.60833333333333  34.5670572916667 5.925  C 34.2784288194445 6.24166666666666  33.9366319444445 6.4  33.5416666666667 7  L 1.45833333333333 7  C 1.06336805555556 6.4  0.721571180555556 6.24166666666666  0.432942708333333 5.925  C 0.144314236111111 5.60833333333333  0 5.23333333333333  0 4.8  L 0 1.6  C 0 1.16666666666666  0.144314236111111 0.791666666666664  0.432942708333333 0.475000000000001  C 0.721571180555556 0.158333333333331  1.06336805555556 0  1.45833333333333 0  L 33.5416666666667 0  C 33.9366319444445 0  34.2784288194445 0.158333333333331  34.5670572916667 0.475000000000001  Z " fill-rule="nonzero" fill="#fefefe" stroke="none" transform="matrix(1 0 0 1 142 80 )" />
  </g>
</svg>